<?xml version="1.0" encoding="UTF-8" standalone="no"?>
<svg xmlns="http://www.w3.org/2000/svg" width="300" height="100" viewBox="0 0 300 100">
  <g fill="#cccccc">
    <path d="M50 10 L20 90 L40 90 L45 75 L65 75 L70 90 L90 90 L60 10 Z M50 30 L60 60 L50 60 Z"/>
    <path d="M100 20 L100 90 L120 90 L120 40 L140 70 L160 40 L160 90 L180 90 L180 20 L160 20 L140 50 L120 20 Z"/>
    <path d="M190 20 L190 90 L210 90 L210 40 L230 70 L250 40 L250 90 L270 90 L270 20 L250 20 L230 50 L210 20 Z"/>
    <path d="M250 40 L250 20 L270 30 Z"/>
  </g>
</svg>
